<?xml version="1.0" encoding="UTF-8" standalone="no"?>
<!DOCTYPE svg PUBLIC "-//W3C//DTD SVG 1.1//EN" "http://www.w3.org/Graphics/SVG/1.1/DTD/svg11.dtd">
<svg width="100%" height="100%" viewBox="0 0 41 105" version="1.1" xmlns="http://www.w3.org/2000/svg" xmlns:xlink="http://www.w3.org/1999/xlink" xml:space="preserve" xmlns:serif="http://www.serif.com/" style="fill-rule:evenodd;clip-rule:evenodd;stroke-linejoin:round;stroke-miterlimit:2;">
    <g transform="matrix(1,0,0,1,-114,-204)">
        <g id="Zondicons" transform="matrix(0.193597,0,0,0.554765,88.1108,73.7007)">
            <rect x="134.888" y="236.57" width="206.614" height="187.467" style="fill:none;"/>
            <clipPath id="_clip1">
                <rect x="134.888" y="236.57" width="206.614" height="187.467"/>
            </clipPath>
            <g clip-path="url(#_clip1)">
                <g id="Controls-Black" transform="matrix(1,0,0,0.961538,-5.68434e-14,9.09883)">
                    <g transform="matrix(5.16536,0,0,1.87467,134.888,354.674)">
                        <path d="M13,8L13,2L7,2L7,8L2,8L10,16L18,8L13,8ZM0,18L20,18L20,20L0,20L0,18Z" style="fill:rgb(39,39,39);fill-rule:nonzero;"/>
                    </g>
                    <g transform="matrix(5.16536,0,0,1.87467,134.888,315.306)">
                        <path d="M12.3,3.7L16.3,7.7L4,20L0,20L0,16L12.3,3.7ZM13.7,2.3L16,0L20,4L17.7,6.3L13.7,2.3Z" style="fill:rgb(39,39,39);fill-rule:nonzero;"/>
                    </g>
                    <g transform="matrix(5.27078,0,0,1.87342,133.833,275.95)">
                        <path d="M0.2,10C2.075,6.321 5.871,3.996 10,3.996C14.129,3.996 17.925,6.321 19.8,10C17.925,13.679 14.129,16.004 10,16.004C5.871,16.004 2.075,13.679 0.2,10ZM10,14C12.194,14 14,12.194 14,10C14,7.806 12.194,6 10,6C7.806,6 6,7.806 6,10C6,12.194 7.806,14 10,14ZM10,12C8.903,12 8,11.097 8,10C8,8.903 8.903,8 10,8C11.097,8 12,8.903 12,10C12,11.097 11.097,12 10,12Z" style="fill:rgb(39,39,39);fill-rule:nonzero;"/>
                    </g>
                    <g transform="matrix(5.16536,0,0,1.87467,134.888,236.57)">
                        <path d="M9.26,13C8.902,12.378 8.906,11.609 9.27,10.99C10.819,10.864 12.027,9.554 12.027,8C12.027,6.354 10.672,5 9.027,5C9.018,5 9.009,5 9,5L5,5C3.354,5 2,6.354 2,8C2,9.646 3.354,11 5,11L5.08,11C4.969,11.662 4.969,12.338 5.08,13L5,13C2.257,13 0,10.743 0,8C0,5.257 2.257,3 5,3L9,3C9.043,2.999 9.087,2.998 9.13,2.998C11.874,2.998 14.132,5.256 14.132,8C14.132,10.695 11.954,12.93 9.26,13ZM10.74,7C11.098,7.622 11.094,8.391 10.73,9.01C9.181,9.136 7.973,10.446 7.973,12C7.973,13.646 9.328,15 10.973,15C10.982,15 10.991,15 11,15L15,15C16.646,15 18,13.646 18,12C18,10.354 16.646,9 15,9L14.92,9C15.031,8.338 15.031,7.662 14.92,7L15,7C17.743,7 20,9.257 20,12C20,14.743 17.743,17 15,17L11,17C10.957,17.001 10.913,17.002 10.87,17.002C8.126,17.002 5.868,14.744 5.868,12C5.868,9.305 8.046,7.07 10.74,7Z" style="fill:rgb(39,39,39);fill-rule:nonzero;"/>
                    </g>
                    <g transform="matrix(5.16536,0,0,1.87467,134.888,394.042)">
                        <path d="M6,2L8,0L12,0L14,2L18,2L18,4L2,4L2,2L6,2ZM3,6L17,6L16,20L4,20L3,6ZM8,8L8,18L9,18L9,8L8,8ZM11,8L11,18L12,18L12,8L11,8Z" style="fill:rgb(39,39,39);fill-rule:nonzero;"/>
                    </g>
                </g>
                <g id="Controls-White" transform="matrix(1,0,0,0.961538,103.307,9.09883)">
                    <g transform="matrix(5.16536,0,0,1.87467,134.888,354.674)">
                        <path d="M13,8L13,2L7,2L7,8L2,8L10,16L18,8L13,8ZM0,18L20,18L20,20L0,20L0,18Z" style="fill:rgb(223,223,223);fill-rule:nonzero;"/>
                    </g>
                    <g transform="matrix(5.16536,0,0,1.87467,134.888,315.306)">
                        <path d="M12.3,3.7L16.3,7.7L4,20L0,20L0,16L12.3,3.7ZM13.7,2.3L16,0L20,4L17.7,6.3L13.7,2.3Z" style="fill:rgb(223,223,223);fill-rule:nonzero;"/>
                    </g>
                    <g transform="matrix(5.27078,0,0,1.87342,133.833,275.95)">
                        <path d="M0.2,10C2.075,6.321 5.871,3.996 10,3.996C14.129,3.996 17.925,6.321 19.8,10C17.925,13.679 14.129,16.004 10,16.004C5.871,16.004 2.075,13.679 0.2,10ZM10,14C12.194,14 14,12.194 14,10C14,7.806 12.194,6 10,6C7.806,6 6,7.806 6,10C6,12.194 7.806,14 10,14ZM10,12C8.903,12 8,11.097 8,10C8,8.903 8.903,8 10,8C11.097,8 12,8.903 12,10C12,11.097 11.097,12 10,12Z" style="fill:rgb(223,223,223);fill-rule:nonzero;"/>
                    </g>
                    <g transform="matrix(5.16536,0,0,1.87467,134.888,236.57)">
                        <path d="M9.26,13C8.902,12.378 8.906,11.609 9.27,10.99C10.819,10.864 12.027,9.554 12.027,8C12.027,6.354 10.672,5 9.027,5C9.018,5 9.009,5 9,5L5,5C3.354,5 2,6.354 2,8C2,9.646 3.354,11 5,11L5.08,11C4.969,11.662 4.969,12.338 5.08,13L5,13C2.257,13 0,10.743 0,8C0,5.257 2.257,3 5,3L9,3C9.043,2.999 9.087,2.998 9.13,2.998C11.874,2.998 14.132,5.256 14.132,8C14.132,10.695 11.954,12.93 9.26,13ZM10.74,7C11.098,7.622 11.094,8.391 10.73,9.01C9.181,9.136 7.973,10.446 7.973,12C7.973,13.646 9.328,15 10.973,15C10.982,15 10.991,15 11,15L15,15C16.646,15 18,13.646 18,12C18,10.354 16.646,9 15,9L14.92,9C15.031,8.338 15.031,7.662 14.92,7L15,7C17.743,7 20,9.257 20,12C20,14.743 17.743,17 15,17L11,17C10.957,17.001 10.913,17.002 10.87,17.002C8.126,17.002 5.868,14.744 5.868,12C5.868,9.305 8.046,7.07 10.74,7Z" style="fill:rgb(223,223,223);fill-rule:nonzero;"/>
                    </g>
                    <g transform="matrix(5.16536,0,0,1.87467,134.888,394.042)">
                        <path d="M6,2L8,0L12,0L14,2L18,2L18,4L2,4L2,2L6,2ZM3,6L17,6L16,20L4,20L3,6ZM8,8L8,18L9,18L9,8L8,8ZM11,8L11,18L12,18L12,8L11,8Z" style="fill:rgb(223,223,223);fill-rule:nonzero;"/>
                    </g>
                </g>
            </g>
        </g>
    </g>
</svg>
